{"title":"Oz the Great and Powerful 2013 HDTS XVID AC3 BHRGg","uid":8266562,"size":1253978939,"categoryP":"video","categoryS":"movies","magnet":"?xt=urn:btih:f75d2ab954c0cd9df9d589db59b2bfb378cc201e&amp;dn=Oz+the+Great+and+Powerful+2013+HDTS+XVID+AC3+BHRGg&amp;tr=udp%3A%2F%2Ftracker.openbittorrent.com%3A80&amp;tr=udp%3A%2F%2Fopen.demonii.com%3A1337&amp;tr=udp%3A%2F%2Ftracker.coppersurfer.tk%3A6969&amp;tr=udp%3A%2F%2Fexodus.desync.com%3A6969","seeders":1,"leechers":0,"uploader":"Gh0stNet","files":3,"time":1363480850,"description":"Format                                   : AVI\nFormat/Info                              : Audio Video Interleave\nFile size                                : 1.16 GiB\nDuration                                 : 2h 4mn\nOverall bit rate                         : 1 332 Kbps\nWriting library                          : VirtualDub build 30091/release\n\nVideo\nID                                       : 0\nFormat                                   : MPEG-4 Visual\nFormat profile                           : Advanced Simple@L5\nFormat settings, BVOP                    : 2\nFormat settings, QPel                    : No\nFormat settings, GMC                     : No warppoints\nFormat settings, Matrix                  : Default (H.263)\nMuxing mode                              : Packed bitstream\nCodec ID                                 : XVID\nCodec ID/Hint                            : XviD\nDuration                                 : 2h 4mn\nBit rate                                 : 1 194 Kbps\nWidth                                    : 656 pixels\nHeight                                   : 272 pixels\nDisplay aspect ratio                     : 2.40:1\nFrame rate                               : 25.000 fps\nColor space                              : YUV\nChroma subsampling                       : 4:2:0\nBit depth                                : 8 bits\nScan type                                : Progressive\nCompression mode                         : Lossy\nBits/(Pixel*Frame)                       : 0.268\nStream size                              : 1.04 GiB (90%)\nWriting library                          : XviD 1.2.1 (UTC 2008-12-04)\n\nAudio\nID                                       : 1\nFormat                                   : AC-3\nFormat/Info                              : Audio Coding 3\nMode extension                           : CM (complete main)\nFormat settings, Endianness              : Big\nCodec ID                                 : 2000\nDuration                                 : 2h 4mn\nBit rate mode                            : Constant\nBit rate                                 : 128 Kbps\nChannel(s)                               : 2 channels\nChannel positions                        : Front: L R\nSampling rate                            : 48.0 KHz\nBit depth                                : 16 bits\nCompression mode                         : Lossy\nStream size                              : 114 MiB (10%)","torrent":{"xt":"urn:btih:f75d2ab954c0cd9df9d589db59b2bfb378cc201e","amp;dn":"Oz+the+Great+and+Powerful+2013+HDTS+XVID+AC3+BHRGg","amp;tr":["udp%3A%2F%2Ftracker.openbittorrent.com%3A80","udp%3A%2F%2Fopen.demonii.com%3A1337","udp%3A%2F%2Ftracker.coppersurfer.tk%3A6969","udp%3A%2F%2Fexodus.desync.com%3A6969"],"infoHash":"f75d2ab954c0cd9df9d589db59b2bfb378cc201e","infoHashBuffer":{"type":"Buffer","data":[247,93,42,185,84,192,205,157,249,213,137,219,89,178,191,179,120,204,32,30]},"announce":[],"urlList":[]}}